<?xml version="1.0" standalone="no"?>
<!DOCTYPE svg PUBLIC "-//W3C//DTD SVG 20010904//EN"
 "http://www.w3.org/TR/2001/REC-SVG-20010904/DTD/svg10.dtd">
<svg version="1.0" xmlns="http://www.w3.org/2000/svg"
 width="512.000000pt" height="512.000000pt" viewBox="0 0 512.000000 512.000000"
 preserveAspectRatio="xMidYMid meet">
<metadata>
Created by potrace 1.14, written by Peter Selinger 2001-2017
</metadata>
<g transform="translate(0.000000,512.000000) scale(0.100000,-0.100000)"
fill="#000000" stroke="none">
<path d="M1324 4348 l1 -213 65 -125 c35 -69 101 -188 147 -265 46 -76 83
-142 83 -146 0 -4 4 -9 8 -11 5 -1 28 -32 52 -68 53 -78 42 -64 135 -177 122
-150 215 -232 331 -292 160 -82 319 -125 458 -123 64 1 156 19 156 31 0 10
-12 23 -137 157 -275 295 -399 492 -467 745 l-18 66 -95 48 c-52 27 -100 53
-106 59 -7 7 -28 23 -47 36 -117 82 -267 266 -350 430 l-30 60 -94 0 -93 0 1
-212z"/>
<path d="M1729 4543 c21 -41 129 -185 173 -232 57 -61 143 -119 182 -123 l29
-3 3 120 c1 66 5 150 9 188 l6 67 -206 0 c-193 0 -205 -1 -196 -17z"/>
<path d="M2329 4478 c-1 -164 5 -303 17 -360 2 -13 7 -38 10 -57 14 -81 74
-231 93 -231 78 0 208 58 327 145 225 166 358 323 450 532 l24 53 -460 0 -460
0 -1 -82z"/>
<path d="M3392 4473 c-23 -47 -40 -88 -38 -91 3 -2 40 12 83 32 80 38 155 93
173 127 10 18 7 19 -82 19 l-93 0 -43 -87z"/>
<path d="M3776 4495 c-50 -76 -194 -194 -305 -249 -75 -38 -207 -87 -214 -80
-2 2 -33 -35 -68 -83 -59 -81 -251 -283 -269 -283 -5 0 -15 -6 -23 -14 -45
-46 -200 -125 -285 -147 -61 -15 -62 -12 9 -115 118 -171 457 -543 570 -627
l36 -27 69 21 c174 53 335 172 466 346 l40 52 -1 612 c0 336 -2 613 -4 615 -2
3 -12 -7 -21 -21z"/>
<path d="M1324 2852 l1 -917 1045 -1 c575 0 1048 1 1052 3 8 4 -25 81 -97 223
-78 155 -155 288 -262 448 -95 142 -96 144 -127 137 -17 -3 -38 -8 -46 -9
-171 -35 -433 -24 -589 25 -36 11 -73 22 -81 24 -9 2 -54 22 -102 45 -216 104
-396 271 -561 520 -31 47 -60 90 -64 96 -14 18 -45 76 -108 201 l-62 122 1
-917z"/>
<path d="M3757 2983 c-20 -21 -46 -50 -59 -64 -46 -52 -140 -119 -227 -162
-49 -25 -95 -47 -102 -49 -9 -3 5 -33 42 -94 29 -49 62 -102 71 -119 28 -48
174 -339 186 -371 64 -164 78 -189 105 -189 27 -1 27 0 27 65 3 354 0 1013 -3
1017 -3 2 -21 -13 -40 -34z"/>
<path d="M2670 1373 c-52 -17 -103 -52 -127 -85 -34 -50 -44 -141 -19 -192 18
-38 98 -115 143 -137 135 -67 192 -143 157 -210 -35 -68 -149 -79 -259 -24
-33 17 -63 32 -68 33 -7 4 -1 -85 9 -135 4 -21 20 -29 104 -50 8 -2 53 -5 100
-5 67 -1 94 3 130 20 56 25 96 64 117 112 16 38 24 129 12 145 -4 6 -8 13 -8
18 0 4 -8 23 -17 42 -19 41 -68 82 -190 158 -97 61 -121 91 -109 140 16 63
108 77 215 34 35 -14 65 -25 66 -24 1 1 5 28 7 59 6 56 5 57 -26 71 -66 31
-186 46 -237 30z"/>
<path d="M0 973 l0 -383 68 0 69 0 -1 164 c-1 192 -18 172 147 170 l108 -1 -3
61 -3 61 -115 0 c-63 0 -120 3 -125 7 -8 5 -10 45 -6 161 1 15 15 17 156 17
l155 0 0 63 0 62 -225 0 -225 0 0 -382z"/>
<path d="M562 1345 c-4 -5 -7 -178 -7 -382 l-1 -373 68 0 68 0 0 155 0 155 30
0 c17 0 33 1 38 1 4 1 12 -7 17 -18 6 -10 46 -81 90 -156 l80 -137 74 0 c61 0
72 3 67 15 -3 8 -44 79 -92 157 -47 79 -88 146 -91 151 -2 4 10 15 28 25 91
49 127 105 127 197 0 108 -80 190 -207 212 -62 10 -282 9 -289 -2z m298 -125
c35 -19 50 -36 59 -67 10 -42 3 -70 -29 -102 -32 -31 -66 -41 -146 -41 l-54 0
0 114 0 114 73 -2 c40 -2 84 -9 97 -16z"/>
<path d="M2254 1345 c-1 -5 -2 -103 -1 -217 1 -115 1 -208 -1 -208 -4 0 -36
35 -116 124 -33 38 -77 86 -96 106 -19 21 -68 74 -109 119 -40 45 -79 80 -85
78 -8 -3 -11 -75 -12 -238 l-1 -234 41 -90 c22 -49 53 -115 68 -145 l27 -55 1
210 1 210 125 -130 c234 -243 277 -285 285 -285 5 0 9 172 9 383 l0 382 -66 0
c-37 0 -68 -4 -70 -10z"/>
<path d="M3004 1351 c-2 -3 3 -15 11 -28 9 -13 12 -23 9 -23 -4 0 0 -8 8 -17
8 -10 57 -92 108 -182 l93 -163 -1 -174 0 -174 69 0 c38 0 70 3 70 8 1 4 2 81
3 172 1 104 6 173 13 186 7 12 64 103 128 204 63 101 115 186 115 189 0 7
-149 6 -154 0 -7 -8 -86 -141 -86 -145 0 -1 -13 -23 -30 -47 -16 -25 -30 -50
-30 -55 0 -6 -4 -13 -9 -16 -9 -6 -29 26 -106 169 -53 99 -54 99 -136 100 -39
0 -73 -2 -75 -4z"/>
<path d="M3706 1351 c-2 -4 -3 -176 -3 -383 l-1 -378 233 0 233 0 -26 63 -26
62 -135 0 -136 0 -1 312 c0 172 -3 316 -7 319 -8 9 -127 12 -131 5z"/>
<path d="M3952 1352 c-6 -2 11 -56 45 -135 30 -73 61 -148 68 -167 7 -19 24
-60 37 -90 14 -30 54 -126 89 -212 35 -87 69 -158 74 -158 11 0 12 2 311 629
30 62 56 118 57 124 1 6 -25 11 -65 11 l-67 2 -103 -206 c-57 -113 -108 -218
-113 -233 l-11 -29 -11 24 c-6 12 -46 113 -89 223 -42 110 -81 204 -86 209 -8
10 -113 16 -136 8z"/>
<path d="M1493 1338 c-6 -7 -32 -58 -58 -113 -27 -55 -104 -212 -171 -349 -68
-137 -126 -258 -130 -268 -5 -16 2 -18 64 -18 l69 0 29 67 30 67 169 0 170 1
32 -67 33 -68 70 0 c38 0 70 2 70 5 0 7 -89 197 -212 455 -36 74 -82 172 -103
218 -21 45 -42 82 -46 82 -3 0 -11 -6 -16 -12z m41 -321 c13 -29 36 -78 51
-110 15 -32 25 -60 22 -63 -5 -5 -218 -7 -222 -2 -6 7 110 236 117 231 5 -2
19 -28 32 -56z"/>
<path d="M4635 1128 c-60 -123 -144 -294 -186 -380 l-78 -158 72 0 72 0 31 68
30 67 165 -2 c90 -1 167 -2 170 -2 3 -1 19 -30 35 -66 l29 -64 73 -1 c39 0 72
2 72 5 0 3 -24 56 -54 118 -97 201 -177 370 -233 492 -57 122 -70 145 -82 145
-4 0 -56 -100 -116 -222z m171 -164 c30 -64 53 -118 51 -120 -6 -6 -217 -7
-223 -1 -3 3 7 27 21 54 15 26 27 49 27 50 -2 5 60 133 65 133 2 0 29 -52 59
-116z"/>
</g>
</svg>
